<svg width="512" height="512" viewBox="0 0 512 512" fill="none" xmlns="http://www.w3.org/2000/svg" xmlns:xlink="http://www.w3.org/1999/xlink"><rect id="_r_o_" width="512" height="512" x="0" y="0" rx="12" fill="url(#_r_p_)" stroke="#FFFFFF" stroke-width="0" stroke-opacity="100%" paint-order="stroke"></rect><clipPath id="clip"><use xlink:href="#_r_o_"></use></clipPath><defs><linearGradient id="_r_p_" gradientUnits="userSpaceOnUse" gradientTransform="rotate(180)" style="transform-origin: center center;"><stop stop-color="#A8C0FF"></stop><stop offset="1" stop-color="#3F2B96"></stop></linearGradient><radialGradient id="_r_q_" cx="0" cy="0" r="1" gradientUnits="userSpaceOnUse" gradientTransform="translate(256) rotate(90) scale(512)"><stop stop-color="white"></stop><stop offset="1" stop-color="white" stop-opacity="0"></stop></radialGradient></defs><svg xmlns="http://www.w3.org/2000/svg" width="352" height="352" viewBox="0 0 24 24" x="80" y="80" alignment-baseline="middle" style="color: rgb(255, 255, 255); width: 352px; height: 352px;">
	<path d="M0 0h24v24H0z" fill="none"></path>
	<path fill="none" stroke="currentColor" stroke-linecap="round" stroke-linejoin="round" stroke-width="2" d="M16 10a2 2 0 0 1-2 2H6.828a2 2 0 0 0-1.414.586l-2.202 2.202A.71.71 0 0 1 2 14.286V4a2 2 0 0 1 2-2h10a2 2 0 0 1 2 2zm4-1a2 2 0 0 1 2 2v10.286a.71.71 0 0 1-1.212.502l-2.202-2.202A2 2 0 0 0 17.172 19H10a2 2 0 0 1-2-2v-1"></path>
</svg>
</svg>